<?xml version="1.0" encoding="UTF-8"?>
<svg width="124px" height="178px" viewBox="0 0 124 178" version="1.1" xmlns="http://www.w3.org/2000/svg" xmlns:xlink="http://www.w3.org/1999/xlink">
    <title>3@1x</title>
    <defs>
        <linearGradient x1="50%" y1="100%" x2="50%" y2="3.061617e-15%" id="linearGradient-1">
            <stop stop-color="#FF8D4F" offset="0%"></stop>
            <stop stop-color="#FF6900" offset="100%"></stop>
        </linearGradient>
    </defs>
    <g id="页面-1" stroke="none" stroke-width="1" fill="none" fill-rule="evenodd">
        <g id="切图" transform="translate(-453.000000, -341.000000)" fill="url(#linearGradient-1)" fill-rule="nonzero">
            <path d="M515.714,518.332 C533.802,518.332 548.796,513.096 560.22,503.1 C570.93,493.104 576.404,480.252 576.404,464.544 C576.404,454.548 573.548,446.218 567.836,439.792 C562.6,433.604 554.984,428.844 544.988,425.75 C563.552,419.562 573.072,406.948 573.072,388.384 C573.072,373.866 567.836,362.442 557.84,354.112 C547.368,345.782 533.802,341.736 516.666,341.736 C500.006,341.736 486.44,346.258 475.968,355.778 C464.782,365.298 458.594,378.388 457.166,395.286 L482.632,395.286 C483.584,384.814 487.154,376.96 492.866,371.724 C498.578,366.488 506.67,363.87 516.904,363.87 C526.9,363.87 534.754,366.012 539.99,370.772 C544.75,375.294 547.368,381.72 547.368,390.288 C547.368,398.856 544.512,405.52 539.276,410.042 C534.04,414.564 526.186,416.944 515.714,416.944 L503.576,416.944 L503.576,436.46 L515.952,436.46 C527.138,436.46 535.706,438.84 541.418,443.6 C547.606,448.36 550.7,455.738 550.7,465.734 C550.7,474.302 547.606,481.204 541.894,486.916 C535.23,493.104 526.424,496.436 515.476,496.436 C505.48,496.436 497.388,493.58 491.2,487.868 C484.06,481.68 480.49,472.874 480.014,461.45 L453.834,461.45 C455.262,480.49 461.926,495.008 473.826,505.004 C484.298,513.81 498.34,518.332 515.714,518.332 Z" id="3"></path>
        </g>
    </g>
</svg>