<?xml version="1.0" encoding="UTF-8"?>
<svg width="33px" height="23px" viewBox="0 0 33 23" version="1.1" xmlns="http://www.w3.org/2000/svg" xmlns:xlink="http://www.w3.org/1999/xlink">
    <title>a</title>
    <defs>
        <linearGradient x1="44.6551127%" y1="0%" x2="55.3448873%" y2="100%" id="linearGradient-1">
            <stop stop-color="#FF8929" offset="0%"></stop>
            <stop stop-color="#FF5556" offset="100%"></stop>
        </linearGradient>
        <linearGradient x1="23.0515496%" y1="0%" x2="76.9484504%" y2="100%" id="linearGradient-2">
            <stop stop-color="#FF9455" offset="0%"></stop>
            <stop stop-color="#FF9729" offset="100%"></stop>
        </linearGradient>
    </defs>
    <g id="页面-1" stroke="none" stroke-width="1" fill="none" fill-rule="evenodd">
        <g id="切图" transform="translate(-310.000000, -1346.000000)">
            <g id="a" transform="translate(310.800000, 1344.794449)">
                <path d="M23.7954404,0.302050887 C26.032267,0.311760905 27.8431818,2.12263611 27.8529408,4.35946252 L27.9268092,21.2907133 C27.9364591,23.5025389 26.1512429,25.3034006 23.9394173,25.3130505 C23.9277981,25.3131012 23.9161788,25.3131013 23.9045596,25.3130509 C21.667733,25.3033409 19.8568182,23.4924657 19.8470592,21.2556393 L19.7731908,4.32438849 C19.7635409,2.11256284 21.5487571,0.311701128 23.7605827,0.302051268 C23.7722019,0.302000575 23.7838212,0.302000448 23.7954404,0.302050887 Z" id="矩形复制-10" fill="url(#linearGradient-1)" transform="translate(23.850000, 12.807551) scale(-1, 1) rotate(-30.000000) translate(-23.850000, -12.807551) "></path>
                <path d="M14.6256762,1.76239152 C12.6836726,0.652387332 10.2099367,1.31519386 9.08307205,3.24746288 L0.553474682,17.8734219 C-0.560795164,19.7840942 0.0848165591,22.2362943 1.99548883,23.3505641 C2.00552597,23.3564176 2.01558854,23.3622274 2.02567625,23.3679933 C3.96767993,24.4779975 6.44141577,23.8151909 7.56828045,21.8829219 L16.0978778,7.25696288 C17.2121477,5.34629061 16.5665359,2.89409052 14.6558637,1.77982067 C14.6458265,1.77396719 14.635764,1.76815742 14.6256762,1.76239152 Z" id="矩形复制-11" fill="url(#linearGradient-2)"></path>
            </g>
        </g>
    </g>
</svg>