<?xml version="1.0" encoding="UTF-8"?>
<svg width="118px" height="174px" viewBox="0 0 118 174" version="1.1" xmlns="http://www.w3.org/2000/svg" xmlns:xlink="http://www.w3.org/1999/xlink">
    <title>2@1x</title>
    <defs>
        <linearGradient x1="50%" y1="100%" x2="50%" y2="3.061617e-15%" id="linearGradient-1">
            <stop stop-color="#FF8D4F" offset="0%"></stop>
            <stop stop-color="#FF6900" offset="100%"></stop>
        </linearGradient>
    </defs>
    <g id="页面-1" stroke="none" stroke-width="1" fill="none" fill-rule="evenodd">
        <g id="切图" transform="translate(-637.000000, -344.000000)" fill="url(#linearGradient-1)" fill-rule="nonzero">
            <path d="M754.548,518 L754.548,495.152 L669.582,495.152 C673.152,485.87 684.1,475.16 702.426,463.022 C719.324,451.598 730.986,442.554 737.65,435.652 C748.598,423.514 754.31,410.186 754.31,395.43 C754.31,380.436 749.074,368.298 738.84,358.778 C728.368,349.258 714.802,344.736 698.618,344.736 C680.53,344.736 665.774,350.686 654.826,363.062 C644.116,374.486 638.642,389.718 638.404,408.758 L664.346,408.758 C664.822,394.954 667.678,384.72 673.39,377.58 C678.864,370.202 686.956,366.632 697.666,366.632 C707.662,366.632 715.516,369.012 720.752,373.772 C725.988,378.532 728.606,385.672 728.606,395.192 C728.606,405.188 724.56,414.47 716.944,423.038 C712.184,428.036 704.092,434.462 692.668,442.554 C673.39,455.882 660.538,466.116 654.35,473.494 C642.926,486.346 637.452,501.102 637.452,518 L754.548,518 Z" id="2"></path>
        </g>
    </g>
</svg>