<?xml version="1.0" encoding="UTF-8"?>
<svg width="32px" height="23px" viewBox="0 0 32 23" version="1.1" xmlns="http://www.w3.org/2000/svg" xmlns:xlink="http://www.w3.org/1999/xlink">
    <title>b</title>
    <defs>
        <linearGradient x1="23.0515496%" y1="0%" x2="76.9484504%" y2="100%" id="linearGradient-1">
            <stop stop-color="#FF9455" offset="0%"></stop>
            <stop stop-color="#FF9729" offset="100%"></stop>
        </linearGradient>
        <linearGradient x1="23.0515496%" y1="0%" x2="76.9484504%" y2="100%" id="linearGradient-2">
            <stop stop-color="#FF8929" offset="0%"></stop>
            <stop stop-color="#FF5556" offset="100%"></stop>
        </linearGradient>
    </defs>
    <g id="页面-1" stroke="none" stroke-width="1" fill="none" fill-rule="evenodd">
        <g id="切图" transform="translate(-93.000000, -1346.000000)">
            <g id="b" transform="translate(93.000000, 1346.019000)">
                <path d="M17.3256762,0.537840631 C19.2676799,-0.572163554 21.7414158,0.0906429744 22.8682805,2.022912 L31.3978778,16.648871 C32.5121477,18.5595433 31.8665359,21.0117434 29.9558637,22.1260132 C29.9458265,22.1318667 29.935764,22.1376765 29.9256762,22.1434424 C27.9836726,23.2534466 25.5099367,22.5906401 24.383072,20.658371 L15.8534747,6.032412 C14.7392048,4.12173973 15.3848166,1.66953963 17.2954888,0.555269788 C17.305526,0.549416305 17.3155885,0.543606531 17.3256762,0.537840631 Z" id="矩形" fill="url(#linearGradient-1)"></path>
                <path d="M2.02567625,0.537840631 C3.96767993,-0.572163554 6.44141577,0.0906429744 7.56828045,2.022912 L16.0978778,16.648871 C17.2121477,18.5595433 16.5665359,21.0117434 14.6558637,22.1260132 C14.6458265,22.1318667 14.635764,22.1376765 14.6256762,22.1434424 C12.6836726,23.2534466 10.2099367,22.5906401 9.08307205,20.658371 L0.553474682,6.032412 C-0.560795164,4.12173973 0.0848165591,1.66953963 1.99548883,0.555269788 C2.00552597,0.549416305 2.01558854,0.543606531 2.02567625,0.537840631 Z" id="矩形复制-9" fill="url(#linearGradient-2)"></path>
            </g>
        </g>
    </g>
</svg>