<?xml version="1.0" encoding="UTF-8"?>
<svg width="648px" height="29px" viewBox="0 0 648 29" version="1.1" xmlns="http://www.w3.org/2000/svg" xmlns:xlink="http://www.w3.org/1999/xlink">
    <title>malu_1@1x</title>
    <g id="页面-1" stroke="none" stroke-width="1" fill="none" fill-rule="evenodd">
        <g id="切图" transform="translate(-51.000000, -954.000000)" stroke="#FFFFFF" stroke-width="4">
            <g id="编组" transform="translate(55.000000, 958.000000)">
                <path d="M629.5,-2 C632.95178,-2 636.07678,-0.600889843 638.338835,1.66116524 C640.60089,3.92322031 642,7.04822031 642,10.5 C642,13.9517797 640.60089,17.0767797 638.338835,19.3388348 C636.07678,21.6008898 632.95178,23 629.5,23 L629.5,23 L10.5,23 C7.04822031,23 3.92322031,21.6008898 1.66116524,19.3388348 C-0.600889843,17.0767797 -2,13.9517797 -2,10.5 C-2,7.04822031 -0.600889843,3.92322031 1.66116524,1.66116524 C3.92322031,-0.600889843 7.04822031,-2 10.5,-2 L10.5,-2 Z" id="矩形" fill="#BBDBAD"></path>
                <line x1="-5.35682609e-14" y1="9.35869565" x2="640" y2="10.5" id="路径-57" stroke-linecap="round" stroke-dasharray="13"></line>
            </g>
        </g>
    </g>
</svg>